<svg width="76" height="33" viewBox="0 0 76 33" fill="none" xmlns="http://www.w3.org/2000/svg">
<path d="M59.0059 22.3496H55.7501V25.6055H59.0059V22.3496Z" fill="#A6F750"/>
<path d="M75.2092 28.9145V32.1233L69.0567 32.1704V27.8253C67.2904 30.722 63.4457 32.6237 59.1477 32.6237C58.3351 32.6282 57.5243 32.5493 56.7279 32.3882C55.4323 32.0966 54.2756 31.3705 53.4498 30.3305C52.624 29.2905 52.1789 27.9993 52.1885 26.6713V25.6115H55.7506V27.4249C55.7498 27.7374 55.8283 28.0449 55.9786 28.3187C56.1289 28.5926 56.3462 28.8239 56.6101 28.9911C57.5622 29.5203 58.6424 29.7751 59.7306 29.727C64.476 29.727 68.3325 26.4123 68.7446 22.3498H59.03V19.0939H64.8764C67.0195 18.8466 68.2383 18.3874 68.5503 17.4689C68.5997 17.3066 68.6255 17.1381 68.6269 16.9685C68.6256 16.692 68.6 16.4162 68.5503 16.1442C68.339 15.0775 67.7597 14.1189 66.9135 13.4359C65.6595 12.4583 64.105 11.9464 62.5155 11.9875C58.9005 11.9875 56.4099 13.9775 55.7741 17.3276H52.3828C53.1482 12.2171 57.0399 9.04956 62.6096 9.04956C67.4964 9.04956 70.8995 11.593 71.8474 15.7085C71.9518 16.1701 72.0246 16.6383 72.0652 17.1098C72.0947 17.4454 72.1123 17.7927 72.1123 18.146V28.9145H75.2092Z" fill="#A6F750"/>
<path d="M13.9066 29.7388V32.6237H8.14264H7.55388C2.76132 32.6237 0 30.1804 0 26.424C0 21.6727 4.79257 19.6356 11.7165 19.2293C15.2491 19.0056 17.0153 18.4639 17.0153 16.9685C17.0153 14.1188 14.3895 11.9934 10.9098 11.9934H7.54798V9.04956H10.9981C15.6435 9.04956 18.9524 11.3516 20.0769 15.1139C20.3651 16.0985 20.5079 17.12 20.5008 18.146V28.9145H23.6213V32.1292L17.4687 32.1704V29.727H13.9361V26.1944H17.2155V20.7425C16.5796 21.3312 14.5013 21.8258 11.7871 22.0083C5.99365 22.4145 3.59735 23.7275 3.59735 26.2592C3.59735 28.5259 5.31655 29.7447 8.16618 29.7447L13.9066 29.7388Z" fill="#A6F750"/>
<path d="M7.53032 12.0168H4.57471V14.9725H7.53032V12.0168Z" fill="#A6F750"/>
<path d="M4.57488 14.9724H1.61926V17.928H4.57488V14.9724Z" fill="#A6F750"/>
<path d="M48.4911 0.0353245V32.1643H45.141V27.8192C44.2265 29.3177 42.9341 30.5493 41.3933 31.3905C39.8525 32.2317 38.1175 32.6529 36.3625 32.6117C29.9391 32.6117 25.0935 27.5484 25.0935 20.8364C25.0935 14.1245 29.9391 9.06111 36.3625 9.06111L43.3099 9.10821V12.3641H36.7923C32.2529 12.3994 28.7615 16.0498 28.7615 20.8246C28.7615 25.5995 32.2941 29.2852 36.8629 29.2852C38.1238 29.2982 39.3696 29.0095 40.4962 28.4431C41.6228 27.8768 42.5977 27.0491 43.3394 26.0293C44.3488 24.6168 44.8828 22.9198 44.8643 21.1838V15.62H43.3452V12.3641H44.8996V0L48.4911 0.0353245Z" fill="#A6F750"/>
</svg>
