<svg width="46" height="31" viewBox="0 0 46 31" fill="none" xmlns="http://www.w3.org/2000/svg">
<path d="M33.3951 1.06614C31.9972 0.33865 30.4369 -0.0274657 28.8587 0.00162797C26.3903 0.00162797 24.4824 0.814197 23.0023 2.16016C21.5222 0.814197 19.6143 0.00162797 17.1482 0.00162797C15.5692 -0.0276526 14.0082 0.338463 12.6095 1.06614C4.78575 2.6822 0 8.36792 0 16.3915C0 23.06 3.2233 27.9672 8.5558 29.9986C9.03566 30.1821 9.52518 30.3397 10.0222 30.4707C11.11 30.7584 12.2245 30.9355 13.3484 30.9996C15.8648 31.0268 16.8119 29.6536 16.8119 29.6536C17.0222 29.4003 17.2061 29.1266 17.3609 28.8365C17.9172 29.1292 18.4918 29.3862 19.0813 29.606C19.0813 29.606 22.9222 31.6351 26.9187 29.606C27.5078 29.3853 28.0823 29.1283 28.639 28.8365C28.7939 29.126 28.977 29.3997 29.1858 29.6536C29.1858 29.6536 30.1398 31.0155 32.6516 30.9996C33.1091 30.9724 33.546 30.9292 33.9807 30.8702C34.6534 30.7797 35.3197 30.647 35.9755 30.473C36.4738 30.3402 36.9648 30.1819 37.4465 29.9986C42.7767 27.9559 46 23.06 46 16.3915C46.0046 8.36792 41.2211 2.6822 33.3951 1.06614ZM14.0988 29.5787C6.60901 29.5787 1.46868 24.1858 1.46868 16.3892C1.46868 10.1338 4.57301 5.51485 9.95584 3.36086C8.51233 5.2788 7.66819 8.03654 7.66819 11.6545C7.66819 18.659 10.9555 24.8327 16.1325 28.1261C15.6406 29.0476 14.9841 29.5787 14.0988 29.5787ZM16.6541 26.855C12.1383 23.7727 9.14603 18.3117 9.14603 11.6477C9.14603 7.22851 10.5667 3.93057 13.2638 2.39394C13.3896 2.32131 13.52 2.25322 13.6527 2.18967C14.7432 1.68129 15.9366 1.4274 17.1413 1.44746C19.0675 1.44746 20.6803 2.0149 22.0095 3.20425C18.8594 7.09006 18.0793 13.7813 17.6881 19.1538C17.5005 22.1839 17.2443 24.9348 16.6541 26.855ZM22.3114 29.2564C20.7623 28.939 19.2716 28.3871 17.8917 27.6199C18.578 25.6294 18.8914 22.7763 19.0973 19.2355C19.6166 11.9224 20.8542 7.04693 23.0069 4.28011C25.1595 7.04693 26.3972 11.9224 26.9164 19.2355C27.1223 22.7763 27.4403 25.6294 28.122 27.6199C26.7421 28.3871 25.2514 28.939 23.7023 29.2564C23.242 29.3516 22.7668 29.3509 22.3068 29.2542L22.3114 29.2564ZM29.3551 26.855C28.7603 24.9371 28.5018 22.1862 28.3073 19.1651C27.9184 13.7926 27.1383 7.1014 23.9905 3.21559C25.3174 2.02624 26.9279 1.45881 28.8587 1.45881C30.0633 1.43931 31.2566 1.69317 32.3473 2.20101C32.4777 2.26457 32.6081 2.33266 32.7339 2.40529C35.4425 3.9351 36.8517 7.24213 36.8517 11.6591C36.8609 18.3094 33.8709 23.7704 29.3551 26.855ZM31.9058 29.5787C31.0205 29.5787 30.3662 29.0453 29.8721 28.1261C35.0422 24.8327 38.3364 18.659 38.3364 11.6545C38.3364 8.03654 37.4991 5.2788 36.0487 3.36086C41.4316 5.51485 44.5359 10.1338 44.5359 16.3892C44.5359 24.1881 39.3956 29.5787 31.9058 29.5787Z" fill="#A6F750"/>
</svg>
